{"title":"WWE Friday Night Smackdown - 24th Sept 2010 - Xvid  - Pdtv","uid":5849949,"size":781690941,"categoryP":"video","categoryS":"hd___tv_shows","magnet":"?xt=urn:btih:9232190bf4990d3e657a9b0519531224f7653dff&amp;dn=WWE+Friday+Night+Smackdown+-+24th+Sept+2010+-+Xvid++-+Pdtv&amp;tr=udp%3A%2F%2Ftracker.openbittorrent.com%3A80&amp;tr=udp%3A%2F%2Fopen.demonii.com%3A1337&amp;tr=udp%3A%2F%2Ftracker.coppersurfer.tk%3A6969&amp;tr=udp%3A%2F%2Fexodus.desync.com%3A6969","seeders":0,"leechers":0,"uploader":"Vamp111","files":2,"time":1285337218,"description":"[IMG]http://i1022.photobucket.com/albums/af345/bhoottt/WWE.jpg[/IMG]\n\n[IMG]http://i1022.photobucket.com/albums/af345/bhoottt/WWEFridayNightSmackdown-24thSept2010-Xvid-PdtvVAMPIREROCKs_20100924-17143134.jpg[/IMG]\n[IMG]http://i1022.photobucket.com/albums/af345/bhoottt/WWEFridayNightSmackdown-24thSept2010-Xvid-PdtvVAMPIREROCKs_20100924-17140092.jpg[/IMG]\n[IMG]http://i1022.photobucket.com/albums/af345/bhoottt/WWEFridayNightSmackdown-24thSept2010-Xvid-PdtvVAMPIREROCKs_20100924-17130389.jpg[/IMG]\n[IMG]http://i1022.photobucket.com/albums/af345/bhoottt/WWEFridayNightSmackdown-24thSept2010-Xvid-PdtvVAMPIREROCKs_20100924-17103656.jpg[/IMG]\n[IMG]http://i1022.photobucket.com/albums/af345/bhoottt/WWEFridayNightSmackdown-24thSept2010-Xvid-PdtvVAMPIREROCKs_20100924-17105242.jpg[/IMG]\n[IMG]http://i1022.photobucket.com/albums/af345/bhoottt/WWEFridayNightSmackdown-24thSept2010-Xvid-PdtvVAMPIREROCKs_20100924-17143848.jpg[/IMG]\n\n\n\nVideo\nID                               : 0\nFormat                           : MPEG-4 Visual\nFormat profile                   : Advanced Simple@L5\nFormat settings, BVOP            : Yes\nFormat settings, QPel            : No\nFormat settings, GMC             : No warppoints\nFormat settings, Matrix          : Default (H.263)\nCodec ID                         : XVID\nCodec ID/Hint                    : XviD\nDuration                         : 1h 21mn\nBit rate                         : 1 135 Kbps\nWidth                            : 624 pixels\nHeight                           : 352 pixels\nDisplay aspect ratio             : 16:9\nFrame rate                       : 25.000 fps\nResolution                       : 8 bits\nColorimetry                      : 4:2:0\nScan type                        : Progressive\nBits/(Pixel*Frame)               : 0.207\nStream size                      : 665 MiB (89%)\nWriting library                  : XviD 1.2.1 (UTC 2008-12-04)\n\nAudio\nID                               : 1\nFormat                           : MPEG Audio\nFormat version                   : Version 1\nFormat profile                   : Layer 3\nMode                             : Joint stereo\nFormat_Settings_ModeExtension    : MS Stereo\nCodec ID                         : 55\nCodec ID/Hint                    : MP3\nDuration                         : 1h 21mn\nBit rate mode                    : Variable\nBit rate                         : 125 Kbps\nNominal bit rate                 : 150 Kbps\nChannel(s)                       : 2 channels\nSampling rate                    : 48.0 KHz\nStream size                      : 73.1 MiB (10%)\nAlignment                        : Aligned on interleaves\nInterleave, duration             : 24 ms (0.60 video frame)","torrent":{"xt":"urn:btih:9232190bf4990d3e657a9b0519531224f7653dff","amp;dn":"WWE+Friday+Night+Smackdown+-+24th+Sept+2010+-+Xvid++-+Pdtv","amp;tr":["udp%3A%2F%2Ftracker.openbittorrent.com%3A80","udp%3A%2F%2Fopen.demonii.com%3A1337","udp%3A%2F%2Ftracker.coppersurfer.tk%3A6969","udp%3A%2F%2Fexodus.desync.com%3A6969"],"infoHash":"9232190bf4990d3e657a9b0519531224f7653dff","infoHashBuffer":{"type":"Buffer","data":[146,50,25,11,244,153,13,62,101,122,155,5,25,83,18,36,247,101,61,255]},"announce":[],"urlList":[]}}